<svg viewBox="0 0 800 500" xmlns="http://www.w3.org/2000/svg" role="img" aria-label="Превʼю сайту медичної клініки">
  <rect width="800" height="500" fill="#eef6f5"/>
  <rect width="800" height="36" fill="#0f2320"/>
  <circle cx="22" cy="18" r="5" fill="#ff6058"/><circle cx="40" cy="18" r="5" fill="#ffbd2e"/><circle cx="58" cy="18" r="5" fill="#28c93f"/>
  <rect x="300" y="10" width="200" height="16" rx="8" fill="#16322d"/>
  <text x="400" y="22" font-family="monospace" font-size="10" fill="#7fa9a1" text-anchor="middle">medlife-clinic.ua</text>
  <!-- nav -->
  <circle cx="50" cy="68" r="13" fill="#2bb3a3"/><path d="M50 60v16M42 68h16" stroke="#fff" stroke-width="3"/>
  <text x="74" y="73" font-family="Arial" font-size="16" fill="#15433d" font-weight="bold">MedLife</text>
  <g font-family="Arial" font-size="11" fill="#4a726c"><text x="520" y="71">Послуги</text><text x="600" y="71">Лікарі</text><text x="670" y="71">Ціни</text></g>
  <rect x="720" y="56" width="56" height="26" rx="13" fill="#2bb3a3"/><text x="748" y="73" font-family="Arial" font-size="9" fill="#fff" text-anchor="middle">Запис</text>
  <!-- hero + booking -->
  <rect x="40" y="98" width="430" height="200" rx="14" fill="#d6ece8"/>
  <text x="68" y="158" font-family="Arial" font-size="25" fill="#15433d" font-weight="bold">Турбота про</text>
  <text x="68" y="188" font-family="Arial" font-size="25" fill="#1f8d80" font-weight="bold">ваше здоровʼя</text>
  <text x="68" y="218" font-family="Arial" font-size="12" fill="#4a726c">Сучасна діагностика · 40+ лікарів</text>
  <circle cx="380" cy="210" r="56" fill="#2bb3a3" opacity="0.35"/>
  <!-- booking card -->
  <rect x="486" y="98" width="274" height="200" rx="14" fill="#fff"/>
  <text x="510" y="128" font-family="Arial" font-size="13" fill="#15433d" font-weight="bold">Онлайн-запис</text>
  <rect x="510" y="142" width="226" height="30" rx="7" fill="#eef6f5"/><text x="522" y="162" font-family="Arial" font-size="10" fill="#7a948f">Оберіть напрям</text>
  <rect x="510" y="180" width="226" height="30" rx="7" fill="#eef6f5"/><text x="522" y="200" font-family="Arial" font-size="10" fill="#7a948f">Лікар</text>
  <rect x="510" y="218" width="108" height="30" rx="7" fill="#eef6f5"/><rect x="628" y="218" width="108" height="30" rx="7" fill="#eef6f5"/>
  <rect x="510" y="256" width="226" height="32" rx="8" fill="#2bb3a3"/><text x="623" y="277" font-family="Arial" font-size="12" fill="#fff" text-anchor="middle" font-weight="bold">Записатися</text>
  <!-- services row -->
  <g font-family="Arial">
    <rect x="40" y="318" width="173" height="150" rx="12" fill="#fff"/><rect x="60" y="338" width="32" height="32" rx="8" fill="#d6ece8"/><text x="60" y="398" font-size="12" fill="#15433d" font-weight="bold">Кардіологія</text>
    <rect x="227" y="318" width="173" height="150" rx="12" fill="#fff"/><rect x="247" y="338" width="32" height="32" rx="8" fill="#d6ece8"/><text x="247" y="398" font-size="12" fill="#15433d" font-weight="bold">Терапія</text>
    <rect x="414" y="318" width="173" height="150" rx="12" fill="#fff"/><rect x="434" y="338" width="32" height="32" rx="8" fill="#d6ece8"/><text x="434" y="398" font-size="12" fill="#15433d" font-weight="bold">Педіатрія</text>
    <rect x="601" y="318" width="159" height="150" rx="12" fill="#2bb3a3"/><text x="621" y="380" font-size="22" fill="#fff" font-weight="bold">+88%</text><text x="621" y="402" font-size="10" fill="#d6ece8">записів онлайн</text>
  </g>
</svg>
