<svg viewBox="0 0 800 500" xmlns="http://www.w3.org/2000/svg" role="img" aria-label="Превʼю лендінгу будівельної компанії">
  <rect width="800" height="500" fill="#161d26"/>
  <rect width="800" height="36" fill="#0e131a"/>
  <circle cx="22" cy="18" r="5" fill="#ff6058"/><circle cx="40" cy="18" r="5" fill="#ffbd2e"/><circle cx="58" cy="18" r="5" fill="#28c93f"/>
  <rect x="300" y="10" width="200" height="16" rx="8" fill="#1c2530"/>
  <text x="400" y="22" font-family="monospace" font-size="10" fill="#7c8aa0" text-anchor="middle">budgarant.ua</text>
  <!-- nav -->
  <rect x="40" y="58" width="26" height="26" rx="6" fill="#f0a23a"/>
  <text x="76" y="76" font-family="Arial" font-size="16" fill="#fff" font-weight="bold">БУДГАРАНТ</text>
  <g font-family="Arial" font-size="11" fill="#aeb8c6"><text x="540" y="74">Послуги</text><text x="620" y="74">Проєкти</text><text x="700" y="74">Ціни</text></g>
  <!-- hero -->
  <rect x="40" y="100" width="720" height="232" rx="14" fill="#1f2a36"/>
  <rect x="40" y="100" width="720" height="232" rx="14" fill="url(#cg)"/>
  <defs><linearGradient id="cg" x1="0" y1="0" x2="1" y2="1"><stop offset="0" stop-color="#27384a"/><stop offset="1" stop-color="#161d26"/></linearGradient></defs>
  <text x="74" y="172" font-family="Arial" font-size="30" fill="#fff" font-weight="bold">Будуємо під ключ</text>
  <text x="74" y="208" font-family="Arial" font-size="30" fill="#f0a23a" font-weight="bold">за фіксованою ціною</text>
  <rect x="74" y="232" width="150" height="40" rx="8" fill="#f0a23a"/>
  <text x="149" y="257" font-family="Arial" font-size="13" fill="#161d26" text-anchor="middle" font-weight="bold">Розрахувати →</text>
  <!-- calculator card -->
  <rect x="500" y="132" width="232" height="168" rx="12" fill="#0f151c" stroke="#2c3a4a"/>
  <text x="520" y="160" font-family="Arial" font-size="11" fill="#8b97a8">Калькулятор вартості</text>
  <rect x="520" y="174" width="192" height="10" rx="5" fill="#27313d"/>
  <rect x="520" y="194" width="192" height="10" rx="5" fill="#27313d"/>
  <rect x="520" y="214" width="120" height="10" rx="5" fill="#27313d"/>
  <text x="520" y="262" font-family="Arial" font-size="22" fill="#f0a23a" font-weight="bold">₴ 1.2 млн</text>
  <text x="520" y="284" font-family="Arial" font-size="10" fill="#6f7c8d">орієнтовно за проєктом</text>
  <!-- stats -->
  <g font-family="Arial">
    <rect x="40" y="352" width="226" height="116" rx="12" fill="#1f2a36"/><text x="62" y="408" font-size="26" fill="#fff" font-weight="bold">14 р.</text><text x="62" y="434" font-size="11" fill="#aeb8c6">на ринку</text>
    <rect x="287" y="352" width="226" height="116" rx="12" fill="#1f2a36"/><text x="309" y="408" font-size="26" fill="#fff" font-weight="bold">320+</text><text x="309" y="434" font-size="11" fill="#aeb8c6">обʼєктів здано</text>
    <rect x="534" y="352" width="226" height="116" rx="12" fill="#1f2a36"/><text x="556" y="408" font-size="26" fill="#f0a23a" font-weight="bold">×3,1</text><text x="556" y="434" font-size="11" fill="#aeb8c6">заявок з реклами</text>
  </g>
</svg>
