<svg viewBox="0 0 800 500" xmlns="http://www.w3.org/2000/svg" role="img" aria-label="Превʼю корпоративного сайту юридичної фірми">
  <rect width="800" height="500" fill="#f3f4f7"/>
  <rect width="800" height="36" fill="#13182a"/>
  <circle cx="22" cy="18" r="5" fill="#ff6058"/><circle cx="40" cy="18" r="5" fill="#ffbd2e"/><circle cx="58" cy="18" r="5" fill="#28c93f"/>
  <rect x="300" y="10" width="200" height="16" rx="8" fill="#222a44"/>
  <text x="400" y="22" font-family="monospace" font-size="10" fill="#8a93ad" text-anchor="middle">pravo-partners.ua</text>
  <!-- nav -->
  <text x="40" y="74" font-family="Georgia, serif" font-size="19" fill="#2b3a66" font-weight="bold">ПРАВО &amp; ПАРТНЕРИ</text>
  <g font-family="Arial" font-size="11" fill="#56607d"><text x="500" y="72">Практики</text><text x="585" y="72">Команда</text><text x="665" y="72">Блог</text><text x="720" y="72">Контакти</text></g>
  <!-- hero band -->
  <rect x="0" y="92" width="800" height="170" fill="#2b3a66"/>
  <text x="40" y="158" font-family="Georgia, serif" font-size="28" fill="#fff" font-weight="bold">Юридичний захист</text>
  <text x="40" y="194" font-family="Georgia, serif" font-size="28" fill="#c7b07e" font-weight="bold">бізнесу та інвестицій</text>
  <rect x="40" y="216" width="138" height="34" rx="4" fill="#c7b07e"/>
  <text x="109" y="238" font-family="Arial" font-size="12" fill="#1d2540" text-anchor="middle">Консультація</text>
  <rect x="520" y="116" width="240" height="122" rx="8" fill="#33426f"/>
  <rect x="540" y="136" width="120" height="9" rx="4" fill="#6f7ca6"/>
  <rect x="540" y="158" width="200" height="7" rx="3" fill="#4a5985"/><rect x="540" y="174" width="200" height="7" rx="3" fill="#4a5985"/><rect x="540" y="190" width="160" height="7" rx="3" fill="#4a5985"/>
  <!-- practice cards -->
  <g font-family="Arial">
    <rect x="40" y="292" width="226" height="176" rx="10" fill="#fff" stroke="#e2e5ee"/><rect x="62" y="314" width="34" height="34" rx="8" fill="#2b3a66"/><text x="62" y="378" font-size="14" fill="#222a44" font-weight="bold">Корпоративне</text><rect x="62" y="394" width="170" height="7" rx="3" fill="#d7dbe6"/><rect x="62" y="410" width="150" height="7" rx="3" fill="#d7dbe6"/><rect x="62" y="426" width="120" height="7" rx="3" fill="#d7dbe6"/>
    <rect x="287" y="292" width="226" height="176" rx="10" fill="#fff" stroke="#e2e5ee"/><rect x="309" y="314" width="34" height="34" rx="8" fill="#2b3a66"/><text x="309" y="378" font-size="14" fill="#222a44" font-weight="bold">Податкове</text><rect x="309" y="394" width="170" height="7" rx="3" fill="#d7dbe6"/><rect x="309" y="410" width="150" height="7" rx="3" fill="#d7dbe6"/><rect x="309" y="426" width="120" height="7" rx="3" fill="#d7dbe6"/>
    <rect x="534" y="292" width="226" height="176" rx="10" fill="#fff" stroke="#e2e5ee"/><rect x="556" y="314" width="34" height="34" rx="8" fill="#2b3a66"/><text x="556" y="378" font-size="14" fill="#222a44" font-weight="bold">Судові спори</text><rect x="556" y="394" width="170" height="7" rx="3" fill="#d7dbe6"/><rect x="556" y="410" width="150" height="7" rx="3" fill="#d7dbe6"/><rect x="556" y="426" width="120" height="7" rx="3" fill="#d7dbe6"/>
  </g>
</svg>
