<svg viewBox="0 0 800 500" xmlns="http://www.w3.org/2000/svg" role="img" aria-label="Превʼю сайту мережі ресторанів">
  <rect width="800" height="500" fill="#1c130e"/>
  <rect width="800" height="36" fill="#120b07"/>
  <circle cx="22" cy="18" r="5" fill="#ff6058"/><circle cx="40" cy="18" r="5" fill="#ffbd2e"/><circle cx="58" cy="18" r="5" fill="#28c93f"/>
  <rect x="300" y="10" width="200" height="16" rx="8" fill="#241710"/>
  <text x="400" y="22" font-family="monospace" font-size="10" fill="#a98a72" text-anchor="middle">trattoria-rosa.ua</text>
  <!-- nav -->
  <text x="40" y="74" font-family="Georgia, serif" font-size="20" fill="#e8763a" font-weight="bold">Trattoria ROSA</text>
  <g font-family="Arial" font-size="11" fill="#c2a892"><text x="520" y="72">Меню</text><text x="585" y="72">Заклади</text><text x="670" y="72">Доставка</text></g>
  <!-- hero -->
  <rect x="40" y="98" width="720" height="190" rx="14" fill="#2a1c13"/>
  <rect x="40" y="98" width="720" height="190" rx="14" fill="url(#rg)"/>
  <defs><radialGradient id="rg" cx="0.7" cy="0.4" r="0.8"><stop offset="0" stop-color="#e8763a" stop-opacity="0.35"/><stop offset="1" stop-color="#2a1c13" stop-opacity="0"/></radialGradient></defs>
  <text x="74" y="166" font-family="Georgia, serif" font-size="30" fill="#fff" font-weight="bold">Італія на вашому</text>
  <text x="74" y="204" font-family="Georgia, serif" font-size="30" fill="#e8763a" font-weight="bold">столі</text>
  <rect x="74" y="226" width="130" height="38" rx="19" fill="#e8763a"/><text x="139" y="250" font-family="Arial" font-size="12" fill="#1c130e" text-anchor="middle" font-weight="bold">Замовити стіл</text>
  <circle cx="600" cy="190" r="70" fill="#3a2417"/><circle cx="600" cy="190" r="46" fill="#7a4a2a"/><circle cx="600" cy="190" r="22" fill="#c2622f"/>
  <!-- menu cards -->
  <g font-family="Arial">
    <rect x="40" y="308" width="226" height="160" rx="12" fill="#241710"/><rect x="56" y="324" width="194" height="78" rx="8" fill="#3a2417"/><circle cx="153" cy="363" r="26" fill="#b9682f"/><text x="56" y="424" font-size="13" fill="#fff" font-weight="bold">Паста Карбонара</text><text x="56" y="450" font-size="13" fill="#e8763a" font-weight="bold">₴ 320</text>
    <rect x="287" y="308" width="226" height="160" rx="12" fill="#241710"/><rect x="303" y="324" width="194" height="78" rx="8" fill="#3a2417"/><circle cx="400" cy="363" r="26" fill="#c98a3a"/><text x="303" y="424" font-size="13" fill="#fff" font-weight="bold">Піца Маргарита</text><text x="303" y="450" font-size="13" fill="#e8763a" font-weight="bold">₴ 280</text>
    <rect x="534" y="308" width="226" height="160" rx="12" fill="#241710"/><rect x="550" y="324" width="194" height="78" rx="8" fill="#3a2417"/><circle cx="647" cy="363" r="26" fill="#9a5a3a"/><text x="550" y="424" font-size="13" fill="#fff" font-weight="bold">Тірамісу</text><text x="550" y="450" font-size="13" fill="#e8763a" font-weight="bold">₴ 190</text>
  </g>
</svg>
