<svg viewBox="0 0 800 500" xmlns="http://www.w3.org/2000/svg" role="img" aria-label="Превʼю сайту інтернет-магазину косметики">
  <rect width="800" height="500" fill="#f6f1ec"/>
  <!-- browser bar -->
  <rect width="800" height="36" fill="#1c1814"/>
  <circle cx="22" cy="18" r="5" fill="#ff6058"/><circle cx="40" cy="18" r="5" fill="#ffbd2e"/><circle cx="58" cy="18" r="5" fill="#28c93f"/>
  <rect x="300" y="10" width="200" height="16" rx="8" fill="#2e2722"/>
  <text x="400" y="22" font-family="monospace" font-size="10" fill="#9a8f86" text-anchor="middle">lumiere-beauty.ua</text>
  <!-- top nav -->
  <text x="40" y="74" font-family="Georgia, serif" font-size="20" fill="#3a2b30" font-weight="bold">LUMIÈRE</text>
  <g font-family="Arial" font-size="11" fill="#6e5b60"><text x="520" y="72">Догляд</text><text x="600" y="72">Макіяж</text><text x="680" y="72">Бренди</text></g>
  <circle cx="760" cy="68" r="12" fill="#d98aa0"/>
  <!-- hero -->
  <rect x="40" y="96" width="720" height="180" rx="14" fill="#efd9dd"/>
  <rect x="40" y="96" width="360" height="180" rx="14" fill="#e6c2ca"/>
  <text x="74" y="160" font-family="Georgia, serif" font-size="26" fill="#5a3a42" font-weight="bold">Догляд, що</text>
  <text x="74" y="192" font-family="Georgia, serif" font-size="26" fill="#5a3a42" font-weight="bold">світиться.</text>
  <rect x="74" y="214" width="120" height="34" rx="17" fill="#c25e74"/>
  <text x="134" y="236" font-family="Arial" font-size="12" fill="#fff" text-anchor="middle">До каталогу</text>
  <circle cx="600" cy="186" r="64" fill="#d98aa0" opacity="0.5"/>
  <rect x="566" y="150" width="68" height="120" rx="10" fill="#cf95a3"/>
  <!-- product grid -->
  <g>
    <rect x="40" y="296" width="226" height="172" rx="12" fill="#fff"/><rect x="56" y="312" width="194" height="104" rx="8" fill="#f0e3e6"/><circle cx="153" cy="364" r="30" fill="#d9aab4"/><rect x="56" y="426" width="120" height="9" rx="4" fill="#5a4a4e"/><text x="56" y="458" font-family="Arial" font-size="13" fill="#c25e74" font-weight="bold">₴480</text>
    <rect x="287" y="296" width="226" height="172" rx="12" fill="#fff"/><rect x="303" y="312" width="194" height="104" rx="8" fill="#efe0d6"/><rect x="370" y="334" width="60" height="60" rx="8" fill="#d6b48f"/><rect x="303" y="426" width="120" height="9" rx="4" fill="#5a4a4e"/><text x="303" y="458" font-family="Arial" font-size="13" fill="#c25e74" font-weight="bold">₴760</text>
    <rect x="534" y="296" width="226" height="172" rx="12" fill="#fff"/><rect x="550" y="312" width="194" height="104" rx="8" fill="#e7e9ea"/><circle cx="647" cy="364" r="30" fill="#b9c2c4"/><rect x="550" y="426" width="120" height="9" rx="4" fill="#5a4a4e"/><text x="550" y="458" font-family="Arial" font-size="13" fill="#c25e74" font-weight="bold">₴1 240</text>
  </g>
</svg>
